<?xml version="1.0" standalone="no"?>
<!DOCTYPE svg PUBLIC "-//W3C//DTD SVG 20010904//EN" "http://www.w3.org/TR/2001/REC-SVG-20010904/DTD/svg10.dtd">
<svg xmlns="http://www.w3.org/2000/svg" version="1.0" width="70.000000pt" height="50.000000pt" viewBox="0 0 70.000000 50.000000" preserveAspectRatio="xMidYMid meet">
<metadata>
Created by potrace 1.16, written by Peter Selinger 2001-2019
<meta name="Producer" content="Online-Convert"/></metadata>
<g transform="translate(0.000000,50.000000) scale(0.100000,-0.100000)" fill="#000000" stroke="none">
<path d="M266 433 c-3 -3 -6 -50 -6 -104 l0 -98 -37 -10 c-21 -5 -74 -19 -117 -30 -43 -11 -86 -27 -95 -36 -15 -15 -14 -17 2 -30 22 -16 151 -30 207 -22 25 3 40 1 43 -7 3 -7 30 -18 60 -25 51 -11 63 -9 200 25 81 20 154 42 164 50 16 11 16 14 3 28 -33 33 -150 41 -277 19 l-33 -5 0 91 c0 84 1 91 20 91 18 0 20 -7 20 -75 l0 -75 48 0 c53 0 76 16 87 61 9 38 -17 83 -60 103 -19 10 -68 24 -108 32 -39 8 -81 16 -93 19 -12 3 -24 2 -28 -2z"/>
</g>
</svg>
